<svg width="16" height="16" viewBox="0 0 16 16" fill="none" xmlns="http://www.w3.org/2000/svg">
<g clip-path="url(#clip0_4016_1941)">
<path d="M8 16C12.4183 16 16 12.4183 16 8C16 3.58172 12.4183 0 8 0C3.58172 0 0 3.58172 0 8C0 12.4183 3.58172 16 8 16Z" fill="#6DA544"/>
<path d="M7.99998 3.13049L14.6087 8.00006L7.99998 12.8696L1.3913 8.00006L7.99998 3.13049Z" fill="#FFDA44"/>
<path d="M8 10.7826C9.53679 10.7826 10.7826 9.53679 10.7826 8C10.7826 6.46322 9.53679 5.21741 8 5.21741C6.46322 5.21741 5.21741 6.46322 5.21741 8C5.21741 9.53679 6.46322 10.7826 8 10.7826Z" fill="#F0F0F0"/>
<path d="M6.60867 7.82605C6.12479 7.82605 5.65782 7.89964 5.21826 8.03621C5.23773 9.55621 6.47536 10.7826 7.99998 10.7826C8.94273 10.7826 9.77536 10.3133 10.2787 9.59608C9.41754 8.51805 8.09251 7.82605 6.60867 7.82605Z" fill="#0052B4"/>
<path d="M10.731 8.53313C10.7645 8.3605 10.7826 8.18241 10.7826 8C10.7826 6.46319 9.53678 5.21741 7.99999 5.21741C6.85331 5.21741 5.86893 5.91119 5.44293 6.90175C5.81949 6.82372 6.20937 6.78263 6.60871 6.78263C8.22487 6.78259 9.68693 7.45441 10.731 8.53313Z" fill="#0052B4"/>
</g>
<defs>
<clipPath id="clip0_4016_1941">
<rect width="16" height="16" fill="white"/>
</clipPath>
</defs>
</svg>
