<svg width="800" height="800" viewBox="0 0 800 800" fill="none" xmlns="http://www.w3.org/2000/svg">
<g clip-path="url(#clip0_236_260)">
<path d="M400 40C392.64 40 386.667 45.9733 386.667 53.3333V133.333C386.667 140.693 392.64 146.667 400 146.667C407.36 146.667 413.333 140.693 413.333 133.333V53.3333C413.333 45.9733 407.36 40 400 40Z" fill="#F0C419"/>
<path d="M786.667 426.667H706.667C699.307 426.667 693.333 432.64 693.333 440C693.333 447.36 699.307 453.333 706.667 453.333H786.667C794.027 453.333 800 447.36 800 440C800 432.64 794.027 426.667 786.667 426.667Z" fill="#F0C419"/>
<path d="M93.3333 426.667H13.3333C5.97333 426.667 0 432.64 0 440C0 447.36 5.97333 453.333 13.3333 453.333H93.3333C100.693 453.333 106.667 447.36 106.667 440C106.667 432.64 100.693 426.667 93.3333 426.667Z" fill="#F0C419"/>
<path d="M702.76 137.24C697.547 132.027 689.12 132.027 683.907 137.24L607.427 213.72C602.213 218.933 602.213 227.36 607.427 232.573C610.027 235.173 613.44 236.48 616.853 236.48C620.267 236.48 623.68 235.173 626.28 232.573L702.76 156.093C707.973 150.88 707.973 142.453 702.76 137.24Z" fill="#F0C419"/>
<path d="M116.093 137.24C110.88 132.027 102.453 132.027 97.24 137.24C92.0266 142.453 92.0266 150.88 97.24 156.093L173.72 232.573C176.32 235.173 179.733 236.48 183.147 236.48C186.56 236.48 189.973 235.173 192.573 232.573C197.787 227.36 197.787 218.933 192.573 213.72L116.093 137.24Z" fill="#F0C419"/>
<path d="M731.387 299.333C728.507 292.56 720.667 289.387 713.907 292.267L677.08 307.893C670.307 310.773 667.133 318.6 670.013 325.373C672.173 330.453 677.107 333.507 682.293 333.507C684.027 333.507 685.8 333.16 687.493 332.44L724.32 316.813C731.093 313.933 734.253 306.107 731.387 299.333Z" fill="#F0C419"/>
<path d="M120.653 312.76L83.56 297.773C76.7334 295.013 68.96 298.307 66.2 305.147C63.44 311.973 66.7467 319.747 73.5734 322.507L110.667 337.493C112.307 338.147 114 338.467 115.653 338.467C120.933 338.467 125.933 335.32 128.027 330.12C130.787 323.293 127.493 315.52 120.653 312.76Z" fill="#F0C419"/>
<path d="M276.813 115.68C273.933 108.893 266.093 105.72 259.333 108.613C252.56 111.493 249.387 119.32 252.267 126.093L267.893 162.92C270.053 168 274.987 171.053 280.173 171.053C281.907 171.053 283.68 170.707 285.373 169.987C292.147 167.107 295.32 159.28 292.44 152.507L276.813 115.68Z" fill="#F0C419"/>
<path d="M534.853 106.213C528.04 103.453 520.253 106.76 517.493 113.587L502.507 150.667C499.747 157.493 503.053 165.267 509.88 168.027C511.52 168.68 513.213 169 514.867 169C520.147 169 525.147 165.853 527.24 160.653L542.227 123.56C544.987 116.747 541.68 108.973 534.853 106.213Z" fill="#F0C419"/>
<path d="M644.333 546.667C658.613 513.987 666.667 477.947 666.667 440C666.667 292.72 547.28 173.333 400 173.333C252.72 173.333 133.333 292.72 133.333 440C133.333 477.947 141.387 513.987 155.667 546.667H644.333Z" fill="#F0C419"/>
<path d="M568.973 546.667C588.52 515.773 600 479.267 600 440C600 329.547 510.453 240 400 240C289.547 240 200 329.547 200 440C200 479.267 211.48 515.773 231.027 546.667H568.973Z" fill="#EDE21B"/>
<path d="M786.667 533.333H13.3333C5.97333 533.333 0 539.307 0 546.667C0 554.027 5.97333 560 13.3333 560H786.667C794.027 560 800 554.027 800 546.667C800 539.307 794.027 533.333 786.667 533.333Z" fill="#F29C1F"/>
<path d="M720 600H80C72.64 600 66.6666 605.973 66.6666 613.333C66.6666 620.693 72.64 626.667 80 626.667H720C727.36 626.667 733.333 620.693 733.333 613.333C733.333 605.973 727.36 600 720 600Z" fill="#F29C1F"/>
<path d="M653.333 666.667H146.667C139.307 666.667 133.333 672.64 133.333 680C133.333 687.36 139.307 693.333 146.667 693.333H653.333C660.693 693.333 666.667 687.36 666.667 680C666.667 672.64 660.693 666.667 653.333 666.667Z" fill="#F29C1F"/>
<path d="M600 733.333H200C192.64 733.333 186.667 739.307 186.667 746.667C186.667 754.027 192.64 760 200 760H600C607.36 760 613.333 754.027 613.333 746.667C613.333 739.307 607.36 733.333 600 733.333Z" fill="#F29C1F"/>
<path d="M316.093 414.947L386.667 344.373V498.853H413.333V344.373L483.907 414.947L502.76 396.093L400 293.333L297.24 396.093L316.093 414.947Z" fill="#546A79"/>
</g>
<defs>
<clipPath id="clip0_236_260">
<rect width="800" height="800" fill="white"/>
</clipPath>
</defs>
</svg>
